<svg xmlns="http://www.w3.org/2000/svg" viewBox="0 0 512 512">
<rect width="512" height="512" rx="112" fill="#3DDC97"/>
<g transform="translate(86.4,422.7)"><path d="M147.57 5.84Q111.41 5.84 84.79-5.84Q58.17-17.52 43.13-38.52Q28.08-59.52 26.05-87.60L69.85-87.60Q71.65-68.73 82.66-56.49Q93.66-44.25 110.84-38.30Q128.03-32.34 147.57-32.34Q170.25-32.34 188.33-39.76Q206.42-47.17 216.97-60.64Q227.53-74.12 227.53-91.87Q227.53-108.04 218.43-118.14Q209.34-128.25 194.29-134.77Q179.24-141.28 161.27-146.22L120.84-157.68Q80.41-169.13 57.95-190.47Q35.49-211.81 35.49-245.05Q35.49-273.35 50.76-294.58Q66.04-315.80 92.09-327.48Q118.14-339.16 150.49-339.16Q183.51-339.16 208.89-327.48Q234.27-315.80 248.98-295.70Q263.69-275.60 264.59-250.21L222.81-250.21Q219.89-274.70 199.45-288.06Q179.01-301.43 149.14-301.43Q127.58-301.43 111.29-294.35Q95.01-287.28 86.03-275.03Q77.04-262.79 77.04-247.07Q77.04-229.55 87.93-218.88Q98.83-208.21 113.76-202.26Q128.70-196.31 140.83-192.94L174.30-183.73Q187.77-180.14 204.06-173.85Q220.34-167.56 235.17-157.11Q249.99-146.67 259.54-130.61Q269.08-114.55 269.08-91.19Q269.08-63.79 254.82-41.78Q240.56-19.77 213.38-6.96Q186.20 5.84 147.57 5.84" fill="#FFFFFF" stroke="#FFFFFF" stroke-width="26" stroke-linejoin="round"/></g>
<circle cx="399.5" cy="422.5" r="34" fill="#0B0F14"/></svg>