<svg xmlns="http://www.w3.org/2000/svg" viewBox="0 0 512 512" fill="none">
  <rect width="512" height="512" rx="96" fill="#4F46E5"/>
  <!-- Receipt body -->
  <rect x="148" y="108" width="216" height="264" rx="14" fill="white"/>
  <!-- Receipt teeth at bottom -->
  <path d="M148 354 Q166 372 184 354 Q202 336 220 354 Q238 372 256 354 Q274 336 292 354 Q310 372 328 354 Q346 336 364 354 L364 372 Q346 390 328 372 Q310 354 292 372 Q274 390 256 372 Q238 354 220 372 Q202 390 184 372 Q166 354 148 372 Z" fill="white"/>
  <!-- Invoice lines -->
  <rect x="180" y="160" width="100" height="12" rx="6" fill="#4F46E5" opacity="0.25"/>
  <rect x="180" y="192" width="152" height="10" rx="5" fill="#4F46E5" opacity="0.18"/>
  <rect x="180" y="218" width="128" height="10" rx="5" fill="#4F46E5" opacity="0.18"/>
  <rect x="180" y="244" width="140" height="10" rx="5" fill="#4F46E5" opacity="0.18"/>
  <!-- Checkmark badge -->
  <circle cx="332" cy="340" r="72" fill="#4F46E5"/>
  <circle cx="332" cy="340" r="60" fill="#3730A3"/>
  <!-- Checkmark -->
  <path d="M300 340 L322 362 L368 310" stroke="white" stroke-width="18" stroke-linecap="round" stroke-linejoin="round"/>
</svg>
